<svg width="50" height="38" viewBox="0 0 50 38" fill="none" xmlns="http://www.w3.org/2000/svg">
<path d="M49.5 29.205V8.795L33.43 19L49.5 29.205ZM0.89 35.04C1.6 36.63 3.215 37.735 5.095 37.735H44.905C46.775 37.735 48.39 36.635 49.105 35.06C49.36 34.5 49.5 33.875 49.5 33.22L30.265 21.005L25 24.355L19.73 21.01L0.5 33.22C0.5 33.865 0.64 34.48 0.89 35.04ZM0.5 8.795V29.2L16.57 19L0.5 8.795ZM5.095 0.264999C3.215 0.264999 1.6 1.375 0.89 2.96C0.64 3.515 0.5 4.13 0.5 4.78L25 20.335L49.5 4.78C49.5 4.125 49.36 3.5 49.105 2.94C48.39 1.365 46.775 0.264999 44.905 0.264999H5.095Z" fill="white"/>
</svg>
