<svg width="41" height="50" viewBox="0 0 41 50" fill="none" xmlns="http://www.w3.org/2000/svg">
<path d="M40.7278 21.14C40.7278 9.74 31.6726 0.5 20.5006 0.5C9.32864 0.5 0.273438 9.74 0.273438 21.14C0.273438 27.565 3.14974 33.305 7.66264 37.09L18.1143 48.28C18.6533 49.02 19.5157 49.5 20.4859 49.5C21.3826 49.5 22.1862 49.09 22.7252 48.45L33.7061 36.77C34.6714 35.92 35.5534 34.98 36.3472 33.96L36.7931 33.485H36.7049C39.2333 30.045 40.7278 25.77 40.7278 21.14ZM20.4957 31.385C14.307 31.385 9.29434 26.27 9.29434 19.955C9.29434 13.64 14.307 8.525 20.4957 8.525C26.6795 8.525 31.6971 13.64 31.6971 19.955C31.6971 26.27 26.6844 31.385 20.4957 31.385Z" fill="white"/>
</svg>
