<svg width="46" height="46" viewBox="0 0 46 46" fill="none" xmlns="http://www.w3.org/2000/svg">
<path d="M0.605267 9.1816C0.605267 9.1816 4.86947 3.335 6.71407 1.8998C8.55867 0.464597 9.54767 -0.271403 12.0593 1.518C14.5709 3.3074 16.4799 5.2854 17.9151 7.521C19.3457 9.7566 19.8241 11.7668 17.5333 13.271C15.2425 14.7752 11.1393 16.5278 12.8229 20.2998C14.5111 24.0718 19.6953 28.8604 19.6953 28.8604C19.6953 28.8604 23.5777 32.66 26.1859 33.4604C28.7941 34.2608 30.0683 32.6922 30.8963 31.2892C31.7243 29.8862 33.4125 26.1464 36.1173 27.071C38.8221 27.9956 41.0807 29.8494 43.1185 32.1816C45.1563 34.5138 46.8399 36.524 44.1351 39.4634C41.4303 42.4028 37.0051 45.4664 37.0051 45.4664C37.0051 45.4664 35.0317 45.8482 31.9129 44.827C28.7941 43.8058 17.7863 40.0062 9.89267 30.5164C8.32867 28.635 1.84267 18.7312 0.858267 12.374C0.862867 12.374 0.159067 9.821 0.605267 9.1816Z" fill="white"/>
</svg>
