<svg width="23" height="17" viewBox="0 0 23 17" fill="none" xmlns="http://www.w3.org/2000/svg">
<path d="M22.6335 7.95668C21.9125 6.70608 17.9466 0.430546 11.2091 0.633346C4.97866 0.79108 1.37333 6.26668 0.393132 7.95668C0.294247 8.12795 0.242187 8.32224 0.242188 8.52001C0.242187 8.71778 0.294247 8.91207 0.393132 9.08335C1.10293 10.3114 4.8998 16.4067 11.5359 16.4067H11.8175C18.048 16.2489 21.6646 10.7733 22.6335 9.08335C22.7324 8.91207 22.7845 8.71778 22.7845 8.52001C22.7845 8.32224 22.7324 8.12795 22.6335 7.95668ZM11.7612 14.1533C6.90527 14.266 3.73933 10.1086 2.74786 8.52001C3.87453 6.70608 6.81513 2.99935 11.3218 2.88668C16.1552 2.76275 19.3324 6.93141 20.3351 8.52001C19.1747 10.3339 16.2679 14.0407 11.7612 14.1533Z" fill="#757575"/>
<path d="M11.5215 4.57666C10.7415 4.57666 9.97914 4.80793 9.33066 5.24123C8.68218 5.67453 8.17676 6.2904 7.8783 7.01095C7.57983 7.7315 7.50174 8.52437 7.6539 9.2893C7.80605 10.0542 8.18162 10.7569 8.7331 11.3084C9.28459 11.8598 9.98722 12.2354 10.7522 12.3876C11.5171 12.5397 12.31 12.4616 13.0305 12.1632C13.7511 11.8647 14.3669 11.3593 14.8002 10.7108C15.2335 10.0623 15.4648 9.29991 15.4648 8.51999C15.4648 7.47416 15.0493 6.47115 14.3098 5.73164C13.5703 4.99212 12.5673 4.57666 11.5215 4.57666ZM11.5215 10.21C11.1872 10.21 10.8605 10.1109 10.5825 9.92518C10.3046 9.73948 10.088 9.47554 9.9601 9.16673C9.83219 8.85792 9.79872 8.51812 9.86393 8.19029C9.92914 7.86246 10.0901 7.56133 10.3264 7.32498C10.5628 7.08863 10.8639 6.92768 11.1918 6.86247C11.5196 6.79726 11.8594 6.83072 12.1682 6.95864C12.477 7.08655 12.7409 7.30316 12.9266 7.58108C13.1123 7.859 13.2115 8.18574 13.2115 8.51999C13.2115 8.96821 13.0334 9.39807 12.7165 9.715C12.3995 10.0319 11.9697 10.21 11.5215 10.21Z" fill="#757575"/>
</svg>
